<?xml version="1.0" encoding="UTF-8"?>
<svg width="40" height="40" viewBox="0 0 40 40" fill="none" xmlns="http://www.w3.org/2000/svg">
  <circle cx="20" cy="20" r="20" fill="#E5E7EB"/>
  <path d="M20 21.5C22.2091 21.5 24 19.7091 24 17.5C24 15.2909 22.2091 13.5 20 13.5C17.7909 13.5 16 15.2909 16 17.5C16 19.7091 17.7909 21.5 20 21.5Z" fill="#9CA3AF"/>
  <path d="M20 23.5C15.5817 23.5 12 27.0817 12 31.5V32.5C12 33.8807 13.1193 35 14.5 35H25.5C26.8807 35 28 33.8807 28 32.5V31.5C28 27.0817 24.4183 23.5 20 23.5Z" fill="#9CA3AF"/>
</svg> 